<svg width="122" height="113" viewBox="0 0 122 113" fill="none" xmlns="http://www.w3.org/2000/svg">
<path fill-rule="evenodd" clip-rule="evenodd" d="M9.86461 78.4224C5.27651 85.753 10.5464 95.2685 19.1945 95.2685H110.892C119.54 95.2685 124.81 85.753 120.222 78.4224L74.3731 5.16723C70.0611 -1.72243 60.0255 -1.7224 55.7134 5.16725L9.86461 78.4224Z" fill="#001254"/>
<path fill-rule="evenodd" clip-rule="evenodd" d="M112.052 78.4224C116.64 85.753 111.37 95.2685 102.722 95.2685H11.0242C2.37614 95.2685 -2.89379 85.753 1.69432 78.4224L47.5432 5.16723C51.8551 -1.72243 61.8907 -1.7224 66.2029 5.16725L112.052 78.4224Z" fill="#062CB4"/>
<path d="M71.4551 95.3515C71.4551 90.8326 69.66 86.4989 66.4648 83.3036C63.2695 80.1083 58.9357 78.3132 54.4169 78.3132C49.8981 78.3132 45.5643 80.1083 42.369 83.3036C39.1738 86.4989 37.3787 90.8326 37.3787 95.3515L54.4169 95.3515H71.4551Z" fill="white"/>
</svg>
